<svg xmlns="http://www.w3.org/2000/svg" width="1440" height="900" viewBox="0 0 1440 900" role="img" aria-labelledby="title desc">
<title id="title">WES Autonomous Intelligence final product concept</title>
<desc id="desc">Concept mockup of the future WES dashboard, task timeline, agent team and deliverables.</desc>
<defs><linearGradient id="bg" x1="0" x2="1"><stop stop-color="#07111f"/><stop offset="1" stop-color="#111b33"/></linearGradient><linearGradient id="accent" x1="0" x2="1"><stop stop-color="#6d5dfc"/><stop offset="1" stop-color="#2dd4bf"/></linearGradient></defs>
<rect width="1440" height="900" rx="28" fill="url(#bg)"/>
<rect x="28" y="28" width="220" height="844" rx="22" fill="#0d1728" stroke="#26334b"/>
<text x="62" y="84" fill="#fff" font-size="30" font-family="Arial" font-weight="700">WES AI</text>
<text x="62" y="112" fill="#8391a8" font-size="13" font-family="Arial">AUTONOMOUS WORKSPACE</text>
<g font-family="Arial" font-size="16"><rect x="48" y="154" width="180" height="48" rx="12" fill="#6758f3"/><text x="72" y="184" fill="#fff">◈ Workspace</text><text x="72" y="242" fill="#aab4c7">◎ Projects</text><text x="72" y="292" fill="#aab4c7">◇ Agent Team</text><text x="72" y="342" fill="#aab4c7">▣ Memory</text><text x="72" y="392" fill="#aab4c7">⌁ Browser</text><text x="72" y="442" fill="#aab4c7">◆ Skills</text><text x="72" y="492" fill="#aab4c7">◫ Analytics</text></g>
<rect x="276" y="28" width="1136" height="84" rx="22" fill="#0d1728" stroke="#26334b"/>
<text x="314" y="65" fill="#fff" font-size="22" font-family="Arial" font-weight="700">Market intelligence task</text><text x="314" y="91" fill="#8d9ab0" font-size="14" font-family="Arial">OpenManus engine · 4 agents · live execution</text>
<rect x="1165" y="50" width="210" height="40" rx="12" fill="url(#accent)"/><text x="1208" y="76" fill="#fff" font-family="Arial" font-size="15" font-weight="700">+ New autonomous task</text>
<rect x="276" y="136" width="720" height="736" rx="22" fill="#0d1728" stroke="#26334b"/>
<text x="314" y="184" fill="#fff" font-size="18" font-family="Arial" font-weight="700">Execution timeline</text>
<line x1="342" y1="230" x2="342" y2="650" stroke="#36435b" stroke-width="3"/>
<g font-family="Arial"><circle cx="342" cy="244" r="11" fill="#2dd4bf"/><text x="374" y="238" fill="#fff" font-size="16" font-weight="700">Goal understood</text><text x="374" y="261" fill="#8d9ab0" font-size="13">Requirements, constraints and success criteria captured</text><circle cx="342" cy="340" r="11" fill="#2dd4bf"/><text x="374" y="334" fill="#fff" font-size="16" font-weight="700">Research completed</text><text x="374" y="357" fill="#8d9ab0" font-size="13">17 verified sources collected by Scout and Browser agents</text><circle cx="342" cy="436" r="11" fill="#6d5dfc"/><text x="374" y="430" fill="#fff" font-size="16" font-weight="700">Analysis in progress</text><text x="374" y="453" fill="#8d9ab0" font-size="13">Analyst and Red Team are comparing evidence</text><circle cx="342" cy="532" r="11" fill="#39465d"/><text x="374" y="526" fill="#c2cad8" font-size="16" font-weight="700">Create deliverables</text><text x="374" y="549" fill="#657187" font-size="13">Report, spreadsheet and presentation</text><circle cx="342" cy="628" r="11" fill="#39465d"/><text x="374" y="622" fill="#c2cad8" font-size="16" font-weight="700">Quality review</text><text x="374" y="645" fill="#657187" font-size="13">Evidence, completeness and policy checks</text></g>
<rect x="314" y="700" width="644" height="128" rx="18" fill="#111d31" stroke="#2b3b55"/><text x="340" y="736" fill="#fff" font-family="Arial" font-size="15" font-weight="700">Live agent message</text><text x="340" y="770" fill="#9eabc0" font-family="Arial" font-size="14">“I found a conflict between two sources. The Red Team is</text><text x="340" y="794" fill="#9eabc0" font-family="Arial" font-size="14">verifying the claim before the final report is generated.”</text>
<rect x="1020" y="136" width="392" height="350" rx="22" fill="#0d1728" stroke="#26334b"/><text x="1054" y="180" fill="#fff" font-size="18" font-family="Arial" font-weight="700">Agent Team</text>
<g font-family="Arial"><rect x="1054" y="210" width="324" height="54" rx="14" fill="#121f34"/><circle cx="1082" cy="237" r="14" fill="#6d5dfc"/><text x="1110" y="232" fill="#fff" font-size="14" font-weight="700">Planner</text><text x="1110" y="251" fill="#8492a8" font-size="12">Completed</text><rect x="1054" y="278" width="324" height="54" rx="14" fill="#121f34"/><circle cx="1082" cy="305" r="14" fill="#2dd4bf"/><text x="1110" y="300" fill="#fff" font-size="14" font-weight="700">Scout</text><text x="1110" y="319" fill="#8492a8" font-size="12">17 sources</text><rect x="1054" y="346" width="324" height="54" rx="14" fill="#121f34"/><circle cx="1082" cy="373" r="14" fill="#f59e0b"/><text x="1110" y="368" fill="#fff" font-size="14" font-weight="700">Analyst</text><text x="1110" y="387" fill="#8492a8" font-size="12">Running</text><rect x="1054" y="414" width="324" height="54" rx="14" fill="#121f34"/><circle cx="1082" cy="441" r="14" fill="#ef4444"/><text x="1110" y="436" fill="#fff" font-size="14" font-weight="700">Red Team</text><text x="1110" y="455" fill="#8492a8" font-size="12">Verifying</text></g>
<rect x="1020" y="510" width="392" height="362" rx="22" fill="#0d1728" stroke="#26334b"/><text x="1054" y="554" fill="#fff" font-size="18" font-family="Arial" font-weight="700">Deliverables</text>
<g font-family="Arial"><rect x="1054" y="584" width="324" height="68" rx="14" fill="#121f34"/><text x="1078" y="612" fill="#fff" font-size="14" font-weight="700">Strategic report.pdf</text><text x="1078" y="635" fill="#8492a8" font-size="12">Generating · 68%</text><rect x="1054" y="668" width="324" height="68" rx="14" fill="#121f34"/><text x="1078" y="696" fill="#fff" font-size="14" font-weight="700">Competitor data.xlsx</text><text x="1078" y="719" fill="#8492a8" font-size="12">Queued</text><rect x="1054" y="752" width="324" height="68" rx="14" fill="#121f34"/><text x="1078" y="780" fill="#fff" font-size="14" font-weight="700">Executive deck.pptx</text><text x="1078" y="803" fill="#8492a8" font-size="12">Queued</text></g>
<text x="1030" y="890" fill="#657187" font-family="Arial" font-size="12">CONCEPT MOCKUP — not a current production screenshot</text>
</svg>